<mxfile host="app.diagrams.net" modified="2024-07-08T12:27:34.552Z" agent="Mozilla/5.0 (Windows NT 10.0; Win64; x64) AppleWebKit/537.36 (KHTML, like Gecko) Chrome/126.0.0.0 Safari/537.36" version="24.6.4" etag="L4k9WpQdFzknpTpnj9Is" type="github">
  <diagram name="Page-1" id="l9-D6eBpLYl6UFJ7iuV1">
    <mxGraphModel>
      <root>
        <mxCell id="0" />
        <mxCell id="1" parent="0" />
      </root>
    </mxGraphModel>
  </diagram>
</mxfile>
